<svg xmlns="http://www.w3.org/2000/svg" xmlns:xlink="http://www.w3.org/1999/xlink" version="1.1" x="0px" y="0px" viewBox="0 0 98 122.5" style="enable-background:new 0 0 98 98;" xml:space="preserve"><path d="M87.642,68.027c5.494-5.744,8.615-13.463,8.615-21.442c0-17.094-13.907-31.001-31.001-31.001  c-3.041,0-6.033,0.44-8.918,1.306c-5.567-3.696-12.24-5.852-19.409-5.852c-19.401,0-35.185,15.784-35.185,35.185  c0,9.14,3.607,17.978,9.95,24.515c-0.856,4.039-2.589,7.889-5.06,11.217c-0.707,0.952-0.816,2.221-0.283,3.28  c0.533,1.059,1.618,1.728,2.804,1.728c7.316,0,14.267-2.199,20.2-6.375c2.481,0.545,5.022,0.82,7.574,0.82  c6.847,0,13.241-1.968,18.652-5.364c3.114,1.023,6.361,1.543,9.674,1.543c2.189,0,4.368-0.23,6.497-0.684  c5.196,3.613,11.266,5.514,17.653,5.514c1.186,0,2.27-0.668,2.803-1.728c0.533-1.059,0.423-2.328-0.284-3.28  C89.853,74.62,88.389,71.404,87.642,68.027z M29.479,74.163c-0.942-0.25-1.946-0.049-2.719,0.545  c-3.495,2.688-7.462,4.505-11.689,5.38c1.522-3.139,2.577-6.499,3.109-9.945c0.158-1.026-0.201-2.065-0.961-2.773  c-5.847-5.451-9.2-13.159-9.2-21.147c0-15.941,12.969-28.911,28.91-28.911s28.911,12.969,28.911,28.911S52.87,75.133,36.929,75.133  C34.407,75.133,31.901,74.807,29.479,74.163z M74.346,71.027c-0.772-0.594-1.777-0.796-2.719-0.545  c-2.071,0.551-4.215,0.83-6.372,0.83c-1.16,0-2.309-0.079-3.443-0.237c6.362-6.37,10.302-15.16,10.302-24.852  c0-9.369-3.681-17.893-9.672-24.205c0.93-0.105,1.868-0.159,2.813-0.159c13.634,0,24.727,11.092,24.727,24.727  c0,6.932-2.795,13.356-7.869,18.087c-0.76,0.708-1.12,1.747-0.961,2.773c0.426,2.76,1.233,5.457,2.383,8.002  C80.222,74.643,77.111,73.154,74.346,71.027z"/><text x="0" y="113" fill="#000000" font-size="5px" font-weight="bold" font-family="'Helvetica Neue', Helvetica, Arial-Unicode, Arial, Sans-serif">Created by miftakhudin</text><text x="0" y="118" fill="#000000" font-size="5px" font-weight="bold" font-family="'Helvetica Neue', Helvetica, Arial-Unicode, Arial, Sans-serif">from the Noun Project</text></svg>