<svg xmlns="http://www.w3.org/2000/svg" xmlns:xlink="http://www.w3.org/1999/xlink" version="1.1" x="0px" y="0px" viewBox="0 0 98 122.5" style="enable-background:new 0 0 98 98;" xml:space="preserve"><path d="M52.098,23.373V49c0,0.643-0.2,1.27-0.573,1.794L39.994,67.025c-0.604,0.85-1.559,1.304-2.528,1.304  c-0.621,0-1.247-0.186-1.792-0.573c-1.395-0.991-1.722-2.925-0.731-4.32l10.959-15.425V23.373c0-1.711,1.387-3.098,3.098-3.098  S52.098,21.661,52.098,23.373z M95.665,49c0,12.464-4.854,24.183-13.668,32.997C73.183,90.811,61.465,95.665,49,95.665  c-12.464,0-24.183-4.854-32.997-13.668C7.189,73.183,2.335,61.464,2.335,49s4.854-24.183,13.668-32.997  C24.817,7.189,36.536,2.335,49,2.335c12.465,0,24.183,4.854,32.997,13.668C90.811,24.817,95.665,36.536,95.665,49z M89.468,49  C89.468,26.686,71.314,8.532,49,8.532S8.532,26.686,8.532,49S26.686,89.468,49,89.468S89.468,71.314,89.468,49z"/><text x="0" y="113" fill="#000000" font-size="5px" font-weight="bold" font-family="'Helvetica Neue', Helvetica, Arial-Unicode, Arial, Sans-serif">Created by miftakhudin</text><text x="0" y="118" fill="#000000" font-size="5px" font-weight="bold" font-family="'Helvetica Neue', Helvetica, Arial-Unicode, Arial, Sans-serif">from the Noun Project</text></svg>